<svg height="16" viewBox="0 0 4.233 4.233" width="16" xmlns="http://www.w3.org/2000/svg"><path d="m2.74 2.752a.423.423 0 0 0 -.423.423v.635c0 .234.19.423.423.423h.005c.265 0 .493-.014.683-.056a.965.965 0 0 0 .49-.248.965.965 0 0 0 .248-.49c.019-.087.032-.175.04-.265.022-.232-.174-.422-.408-.422zm-2.751.005v-.429c0-.234.19-.423.423-.423h1.058c.234 0 .423.19.423.423v1.482c0 .234-.189.423-.423.423h-.005c-.265 0-.492-.014-.683-.056a.965.965 0 0 1 -.49-.248.965.965 0 0 1 -.247-.49 3.233 3.233 0 0 1 -.056-.682zm4.233-.852c0 .234-.19.423-.424.423h-1.058a.423.423 0 0 1 -.423-.423v-1.482c0-.233.19-.423.423-.423h.005c.265 0 .493.014.683.056.193.043.36.118.49.248s.205.297.248.49c.042.19.056.417.056.683zm-2.329-1.482a.423.423 0 0 0 -.423-.423h-.005a3.23 3.23 0 0 0 -.683.056.965.965 0 0 0 -.49.248.965.965 0 0 0 -.247.49c-.02.086-.032.176-.04.265-.023.233.173.423.407.423h1.058c.234 0 .424-.19.424-.424z" fill="#f8f8f8" stroke-width=".211656"/></svg>