<svg height="16" viewBox="0 0 4.233 4.233" width="16" xmlns="http://www.w3.org/2000/svg"><path d="m2.11608-.00003308c-.7305438 0-1.32277659.59242972-1.32277659 1.32321658 0 .3653934.14815725.6961024.38752709.9355602.1222097.1222306.371156.2464047.3896009.3928251.0165396.1312283-.1389264.2543107-.2480106.3034097-.2645587.1190632-.78424291.0994468-.72649741-.4450335-.00190518-.2257627.137409-.4158487-.06717867-.6574733-.1094214-.129227-.32264139-.1277963-.42059799.0155063-.22757628.3329336.0704158.5280312.1560393.778422.0637561.1864223.0580574.4091004.1715505.5701255.0798068.1132163.2042589.1942292.33689652.2470663.1072296.042714.32788485.049719.45625685.038249.1872135-.016722.3856472-.085942.5523589-.23725-.2019996.4007476-.3630801.5472755-.5580407.601138-.2042757.0564345-.35591458.0367188-.46917163-.029466-.1532574-.0895393-.098631-.3619283-.36945318-.3990275-.3703299-.0507365-.3520368.3940241-.26248491.4806937.11286927.1092467.30600057.1268784.42886782.1757375.16414053.0652834.481589.1898792.8499885.112166.2884746-.0608506.4504992-.2361829.5750946-.4253922.0731724-.1110992.1400307-.3742175.1400307-.3742175s.066867.2631183.1400223.3742175c.1246038.1892093.2866284.3645416.575103.4253922.3684079.077713.685848-.046891.8499969-.1121577.1228588-.0488674.3159986-.0664991.4288678-.1757375.0895519-.0866779.1078366-.5314385-.2624933-.4807103-.2708222.0371075-.2161958.3094965-.3694447.3990358-.1132739.0661848-.2649044.0859005-.4691717.029466-.1949606-.0538625-.3560495-.2003821-.5580491-.601138.1667117.1513079.3651454.2205278.5523589.2372497.128372.0114705.3490188.0044658.4562569-.0382487.132646-.0528371.2570897-.1338417.3368965-.2470663.1134931-.1610169.1078028-.3837032.1715505-.5701255.0856235-.2503908.3836156-.4454884.1560393-.778422-.0979566-.1433026-.3111766-.144725-.420598-.0155063-.2045961.2416246-.0652735.4317106-.0671703.6574733.0577455.5444803-.4619387.5640967-.7264974.4450335-.1090926-.049099-.2645586-.1721814-.248019-.3034098.0184449-.1464203.2673996-.2705944.3896009-.392825.2393698-.2394578.3875271-.5701668.3875271-.9355602 0-.73078686-.5922244-1.32321658-1.3227766-1.32321658z" fill="#f8f8f8"/></svg>