<svg height="16" viewBox="0 0 4.233 4.233" width="16" xmlns="http://www.w3.org/2000/svg"><g fill="#f8f8f8"><path d="m.263.264h.31v3.703h-.31zm1.852 0h.31v3.703h-.31z"/><path d="m.572.264h1.851v.31h-1.85z"/><path d="m.417 3.66h1.697v.308h-1.697z"/><g stroke-linecap="square" stroke-linejoin="round" stroke-miterlimit="0" stroke-width=".099992"><path d="m2.91.265h.265v1.587h-.265z"/><path d="m3.175.265h.794v.265h-.794z"/><path d="m3.704.529h.265v1.323h-.265zm-.794 1.323h1.058v.265h-1.058zm0 .529h1.058v.265h-1.058zm0 .265h.265v1.323h-.265z"/><path d="m3.175 3.704h.794v.265h-.794zm.529-1.058h.265v1.058h-.265z"/></g></g></svg>